<?xml version='1.0' encoding='UTF-8'?>
<svg x="0px" y="0px" viewBox="0 0 32 32" version="1.1" xmlns="http://www.w3.org/2000/svg" xmlns:xlink="http://www.w3.org/1999/xlink" xml:space="preserve" style="enable-background:new 0 0 32 32">
  <style type="text/css">
	.Blue{fill:#1177D7;}
	.Black{fill:#727272;}
	.Green{fill:#039C23;}
	.st0{opacity:0.3;}
</style>
  <g id="Layer_1">
    <path d="M8,8" class="Black" />
    <polygon points="30,24 18,24 24,28  " class="Blue" />
    <path d="M18,26v5c0,0.6,0.4,1,1,1h10c0.6,0,1-0.4,1-1v-5l-6,4L18,26z" class="Blue" />
    <path d="M6,18H4v11c0,0.6,0.4,1,1,1h11v-2H6V18z" class="Black" />
    <path d="M6,10V4h18v6h2V3c0-0.6-0.4-1-1-1H5C4.4,2,4,2.4,4,3v7H6z" class="Black" />
    <rect x="24" y="18" width="2" height="4" rx="0" ry="0" class="Black" />
    <path d="M29,8H1C0.4,8,0,8.4,0,9v10c0,0.6,0.4,1,1,1h28c0.6,0,1-0.4,1-1V9C30,8.4,29.6,8,29,8z M7.1,17.9V18   l-1.3-2.5c-0.1-0.1-0.1-0.3-0.2-0.5c0,0.1-0.1,0.3-0.2,0.5L4.1,18H2l2.5-3.9l-2.2-3.9h2.1l1.1,2.3c0.1,0.2,0.2,0.4,0.2,0.7   c0-0.2,0.1-0.4,0.2-0.7l1.2-2.3H9L6.7,14l2.4,3.9H7.1z M14.7,18h-4.6v-7.7h1.7v6.3h2.9V18z M17.6,18c-0.4,0-0.8,0-1.1-0.1   c-0.4-0.1-0.7-0.2-0.9-0.3V16c0.3,0.3,0.6,0.5,0.9,0.6c1.1,0.4,2.2,0,2.2-0.6c0-1.5-2.9-1.8-2.9-3.6c0-0.8,0.5-2.1,2.6-2.1   c0.4,0,1.6,0.2,1.8,0.3v1.6c-0.1-0.1-0.4-0.3-0.6-0.4c-0.6-0.3-1.2-0.3-1.7-0.2c-0.6,0.2-0.7,0.9-0.3,1.3c0.6,0.6,1.5,1.1,2,1.5   C21,15.5,20.7,18,17.6,18z M26.1,17.9V18l-1.3-2.5c-0.1-0.1-0.1-0.3-0.2-0.5c0,0.1-0.1,0.3-0.2,0.5L23.1,18H21l2.5-3.9l-2.2-3.9   h2.1l1.1,2.3c0.1,0.2,0.2,0.4,0.2,0.7c0-0.2,0.1-0.4,0.2-0.7l1.2-2.3H28L25.7,14l2.4,3.9H26.1z" class="Green" />
    <g class="st0">
      <path d="M29,8H1C0.4,8,0,8.4,0,9v10c0,0.6,0.4,1,1,1h28c0.6,0,1-0.4,1-1V9C30,8.4,29.6,8,29,8z M7.1,17.9V18    l-1.3-2.5c-0.1-0.1-0.1-0.3-0.2-0.5c0,0.1-0.1,0.3-0.2,0.5L4.1,18H2l2.5-3.9l-2.2-3.9h2.1l1.1,2.3c0.1,0.2,0.2,0.4,0.2,0.7    c0-0.2,0.1-0.4,0.2-0.7l1.2-2.3H9L6.7,14l2.4,3.9H7.1z M14.7,18h-4.6v-7.7h1.7v6.3h2.9V18z M17.6,18c-0.4,0-0.8,0-1.1-0.1    c-0.4-0.1-0.7-0.2-0.9-0.3V16c0.3,0.3,0.6,0.5,0.9,0.6c1.1,0.4,2.2,0,2.2-0.6c0-1.5-2.9-1.8-2.9-3.6c0-0.8,0.5-2.1,2.6-2.1    c0.4,0,1.6,0.2,1.8,0.3v1.6c-0.1-0.1-0.4-0.3-0.6-0.4c-0.6-0.3-1.2-0.3-1.7-0.2c-0.6,0.2-0.7,0.9-0.3,1.3c0.6,0.6,1.5,1.1,2,1.5    C21,15.5,20.7,18,17.6,18z M26.1,17.9V18l-1.3-2.5c-0.1-0.1-0.1-0.3-0.2-0.5c0,0.1-0.1,0.3-0.2,0.5L23.1,18H21l2.5-3.9l-2.2-3.9    h2.1l1.1,2.3c0.1,0.2,0.2,0.4,0.2,0.7c0-0.2,0.1-0.4,0.2-0.7l1.2-2.3H28L25.7,14l2.4,3.9H26.1z" class="Blue" />
    </g>
  </g>
  <g id="Layer_2" />
</svg>